# xmcd
# 
# Track frame offsets:
#     150
#     16447
#     24340
# 
# Disc length: 602
# 
# Revision: 5
# Processed by: cddbd v1.5.2PL0 Copyright (c) Steve Scherf et al.
# Submitted via: fre:ac v1.0.31
# 
DISCID=17025803
DTITLE=Various Artist - D.I.Y.S. MONEYKit by SonyBank
DYEAR=0
DGENRE=
TTITLE0=Draco - Gubs I Roc
TTITLE1=Draco - Vapor
TTITLE2=Pepe California - Frappe
EXTD=
EXTT0=
EXTT1=
EXTT2=
PLAYORDER=
